<svg width="60" height="34" viewBox="0 0 60 34" fill="none" xmlns="http://www.w3.org/2000/svg">
<path fill-rule="evenodd" clip-rule="evenodd" d="M32.5497 32.0938L31.1787 33.5625L31.0516 30.9801L30.498 19.4452C31.1298 19.3997 31.742 19.2791 32.3217 19.0936C32.9275 20.5916 34.0281 23.4931 34.9758 26.0202C36.0603 28.9056 34.66 29.6709 32.5497 32.0938Z" fill="#FFB300"/>
<path fill-rule="evenodd" clip-rule="evenodd" d="M36.806 7.60069L59.8234 -0.000164032C57.827 3.92076 57.3321 6.03755 53.2451 7.07633L38.3691 10.8605L55.1665 9.2062C51.8089 11.8798 51.454 13.2606 47.2335 13.329L37.6037 13.4885L48.37 15.3936C45.2209 16.9471 44.4817 18.4093 41.1176 17.6732L36.7603 16.2729L42.2509 19.9984C38.063 21.3433 37.3986 21.0796 35.2461 17.4062C36.8417 15.9538 37.8447 13.8598 37.8447 11.5313C37.8447 10.1018 37.467 8.76003 36.806 7.60069Z" fill="#16B1C3"/>
<path fill-rule="evenodd" clip-rule="evenodd" d="M27.2766 32.0938L28.6477 33.5625L28.7715 30.9801L29.325 19.4452C28.6933 19.3997 28.0843 19.2791 27.5014 19.0936C26.8957 20.5916 25.7982 23.4931 24.8473 26.0202C23.766 28.9056 25.1631 29.6709 27.2766 32.0938Z" fill="#FFB300"/>
<path fill-rule="evenodd" clip-rule="evenodd" d="M24.5805 17.4062C22.4248 21.0796 21.7636 21.3433 17.5757 19.9984L23.0663 16.2729L18.709 17.6732C15.3418 18.4093 14.6024 16.9471 11.4567 15.3936L22.2229 13.4885L12.5898 13.329C8.36934 13.2606 8.01446 11.8798 4.65686 9.2062L21.4543 10.8605L6.57828 7.07633C2.49129 6.03755 1.99963 3.92076 0 -0.000164032L23.0174 7.60069C22.3564 8.76003 21.9786 10.1018 21.9786 11.5313C21.9786 13.8598 22.9817 15.9538 24.5805 17.4062Z" fill="#16B1C3"/>
</svg>
